<svg xmlns="http://www.w3.org/2000/svg" viewBox="0 0 100 100"><title>quickview</title><g id="Camada_2" data-name="Camada 2"><g id="Layer_1" data-name="Layer 1"><path d="M46.47,32.06A13.69,13.69,0,1,0,60.16,45.75,13.69,13.69,0,0,0,46.47,32.06ZM53.09,49h-4v4a2.59,2.59,0,1,1-5.19,0V49h-4a2.59,2.59,0,0,1,0-5.19h4v-4a2.59,2.59,0,0,1,5.19,0v4h4a2.59,2.59,0,1,1,0,5.19Z"/><path d="M50,0a50,50,0,1,0,50,50A50,50,0,0,0,50,0ZM75.15,73.75a4,4,0,0,1-5.73,0L58,62.37a20.26,20.26,0,1,1,5.59-5.87L75.15,68A4,4,0,0,1,75.15,73.75Z"/></g></g></svg>